<svg xmlns="http://www.w3.org/2000/svg" viewBox="0 0 800 800" role="img" aria-label="ProChef S3 Inverter">
<defs>
  <linearGradient id="prochefs3invertera-glass" x1="0" y1="0" x2="1" y2="1">
    <stop offset="0" stop-color="#2b2b30"/><stop offset=".45" stop-color="#141417"/><stop offset="1" stop-color="#060607"/>
  </linearGradient>
  <linearGradient id="prochefs3invertera-shine" x1="0" y1="0" x2="1" y2="1">
    <stop offset="0" stop-color="#fff" stop-opacity=".16"/><stop offset=".4" stop-color="#fff" stop-opacity="0"/>
  </linearGradient>
  <linearGradient id="prochefs3invertera-steel" x1="0" y1="0" x2="1" y2="1">
    <stop offset="0" stop-color="#f5f5f4"/><stop offset=".5" stop-color="#a8a29e"/><stop offset="1" stop-color="#e7e5e4"/>
  </linearGradient>
  <radialGradient id="prochefs3invertera-pan" cx=".42" cy=".38" r=".75">
    <stop offset="0" stop-color="#fafaf9"/><stop offset=".55" stop-color="#d6d3d1"/><stop offset="1" stop-color="#78716c"/>
  </radialGradient>
  <radialGradient id="prochefs3invertera-glow" cx=".5" cy=".5" r=".5">
    <stop offset=".72" stop-color="#ff6a1a" stop-opacity="0"/><stop offset=".86" stop-color="#ff6a1a" stop-opacity=".85"/><stop offset="1" stop-color="#ff3d00" stop-opacity="0"/>
  </radialGradient>
  <filter id="prochefs3invertera-shadow" x="-20%" y="-20%" width="140%" height="150%">
    <feDropShadow dx="0" dy="28" stdDeviation="26" flood-color="#1c1917" flood-opacity=".28"/>
  </filter>
  <filter id="prochefs3invertera-blur"><feGaussianBlur stdDeviation="6"/></filter>
</defs>
<ellipse cx="400" cy="690" rx="230" ry="26" fill="#1c1917" opacity=".12"/>
<g filter="url(#prochefs3invertera-shadow)">
  <rect x="200" y="100" width="400" height="560" rx="34" fill="url(#prochefs3invertera-steel)"/>
  <rect x="210" y="110" width="380" height="540" rx="26" fill="url(#prochefs3invertera-glass)"/>
</g>

  <circle cx="400" cy="305" r="142" fill="none" stroke="#fff" stroke-opacity=".22" stroke-width="2"/>
  <circle cx="400" cy="305" r="130" fill="none" stroke="#fff" stroke-opacity=".07" stroke-width="1.5"/>
  <line x1="550.0" y1="305.0" x2="562.0" y2="305.0" stroke="#fff" stroke-opacity=".28" stroke-width="2" stroke-linecap="round"/><line x1="400.0" y1="455.0" x2="400.0" y2="467.0" stroke="#fff" stroke-opacity=".28" stroke-width="2" stroke-linecap="round"/><line x1="250.0" y1="305.0" x2="238.0" y2="305.0" stroke="#fff" stroke-opacity=".28" stroke-width="2" stroke-linecap="round"/><line x1="400.0" y1="155.0" x2="400.0" y2="143.0" stroke="#fff" stroke-opacity=".28" stroke-width="2" stroke-linecap="round"/>
<line x1="244" y1="530" x2="556" y2="530" stroke="#fff" stroke-opacity=".08"/>
<g stroke="#e7e5e4" stroke-opacity=".75" stroke-width="2.4" fill="none" stroke-linecap="round">
    <path d="M258 571 a12 12 0 1 0 12 0"/><line x1="264" y1="566" x2="264" y2="579"/></g>
<line x1="304" y1="580" x2="416" y2="580" stroke="#fff" stroke-opacity=".25" stroke-width="3" stroke-linecap="round"/>
<circle cx="304.0" cy="580" r="3.2" fill="#ff7a2e" fill-opacity="1"/>
<circle cx="316.4" cy="580" r="3.2" fill="#ff7a2e" fill-opacity="1"/>
<circle cx="328.9" cy="580" r="3.2" fill="#ff7a2e" fill-opacity="1"/>
<circle cx="341.3" cy="580" r="3.2" fill="#ff7a2e" fill-opacity="1"/>
<circle cx="353.8" cy="580" r="3.2" fill="#ff7a2e" fill-opacity="1"/>
<circle cx="366.2" cy="580" r="3.2" fill="#ff7a2e" fill-opacity="1"/>
<circle cx="378.7" cy="580" r="2.4" fill="#fff" fill-opacity="0.35"/>
<circle cx="391.1" cy="580" r="2.4" fill="#fff" fill-opacity="0.35"/>
<circle cx="403.6" cy="580" r="2.4" fill="#fff" fill-opacity="0.35"/>
<circle cx="416.0" cy="580" r="2.4" fill="#fff" fill-opacity="0.35"/>
<text x="508" y="589" text-anchor="end" font-family="'Courier New', monospace" font-weight="700" font-size="26" fill="#ff3b1f" letter-spacing="2">P9</text>
<g fill="none" stroke="#e7e5e4" stroke-opacity=".6" stroke-width="2.2" stroke-linejoin="round">
    <rect x="530" y="577" width="18" height="14" rx="3"/><path d="M534 577 v-4 a5 5 0 0 1 10 0 v4"/></g>
<text x="400" y="624" text-anchor="middle" font-family="'Be Vietnam Pro', 'Segoe UI', Arial, sans-serif" font-size="13" font-weight="600" letter-spacing="4" fill="#fff" fill-opacity=".42">INVERTER</text>
<text x="400" y="146" text-anchor="middle" font-family="'Be Vietnam Pro', 'Segoe UI', Arial, sans-serif" font-size="15" font-weight="700" letter-spacing="3" fill="#fff" fill-opacity=".5">PROCHEF</text>
<path d="M210 140 q0 -30 30 -30 h209.00000000000003 l-239.00000000000003 334.8 z" fill="url(#prochefs3invertera-shine)"/>
</svg>